<svg viewBox="0 0 200 200" xmlns="http://www.w3.org/2000/svg" role="img" aria-label="rays"><line x1="100" y1="100" x2="100" y2="6" stroke="currentColor" stroke-width="2.4" stroke-opacity=".9" stroke-linecap="round"></line><line x1="100" y1="100" x2="120.19" y2="24.66" stroke="currentColor" stroke-width="1.1" stroke-opacity=".5" stroke-linecap="round"></line><line x1="100" y1="100" x2="147" y2="18.59" stroke="currentColor" stroke-width="2.4" stroke-opacity=".9" stroke-linecap="round"></line><line x1="100" y1="100" x2="155.15" y2="44.85" stroke="currentColor" stroke-width="1.1" stroke-opacity=".5" stroke-linecap="round"></line><line x1="100" y1="100" x2="181.41" y2="53" stroke="currentColor" stroke-width="2.4" stroke-opacity=".9" stroke-linecap="round"></line><line x1="100" y1="100" x2="175.34" y2="79.81" stroke="currentColor" stroke-width="1.1" stroke-opacity=".5" stroke-linecap="round"></line><line x1="100" y1="100" x2="194" y2="100" stroke="currentColor" stroke-width="2.4" stroke-opacity=".9" stroke-linecap="round"></line><line x1="100" y1="100" x2="175.34" y2="120.19" stroke="currentColor" stroke-width="1.1" stroke-opacity=".5" stroke-linecap="round"></line><line x1="100" y1="100" x2="181.41" y2="147" stroke="currentColor" stroke-width="2.4" stroke-opacity=".9" stroke-linecap="round"></line><line x1="100" y1="100" x2="155.15" y2="155.15" stroke="currentColor" stroke-width="1.1" stroke-opacity=".5" stroke-linecap="round"></line><line x1="100" y1="100" x2="147" y2="181.41" stroke="currentColor" stroke-width="2.4" stroke-opacity=".9" stroke-linecap="round"></line><line x1="100" y1="100" x2="120.19" y2="175.34" stroke="currentColor" stroke-width="1.1" stroke-opacity=".5" stroke-linecap="round"></line><line x1="100" y1="100" x2="100" y2="194" stroke="currentColor" stroke-width="2.4" stroke-opacity=".9" stroke-linecap="round"></line><line x1="100" y1="100" x2="79.81" y2="175.34" stroke="currentColor" stroke-width="1.1" stroke-opacity=".5" stroke-linecap="round"></line><line x1="100" y1="100" x2="53" y2="181.41" stroke="currentColor" stroke-width="2.4" stroke-opacity=".9" stroke-linecap="round"></line><line x1="100" y1="100" x2="44.85" y2="155.15" stroke="currentColor" stroke-width="1.1" stroke-opacity=".5" stroke-linecap="round"></line><line x1="100" y1="100" x2="18.59" y2="147" stroke="currentColor" stroke-width="2.4" stroke-opacity=".9" stroke-linecap="round"></line><line x1="100" y1="100" x2="24.66" y2="120.19" stroke="currentColor" stroke-width="1.1" stroke-opacity=".5" stroke-linecap="round"></line><line x1="100" y1="100" x2="6" y2="100" stroke="currentColor" stroke-width="2.4" stroke-opacity=".9" stroke-linecap="round"></line><line x1="100" y1="100" x2="24.66" y2="79.81" stroke="currentColor" stroke-width="1.1" stroke-opacity=".5" stroke-linecap="round"></line><line x1="100" y1="100" x2="18.59" y2="53" stroke="currentColor" stroke-width="2.4" stroke-opacity=".9" stroke-linecap="round"></line><line x1="100" y1="100" x2="44.85" y2="44.85" stroke="currentColor" stroke-width="1.1" stroke-opacity=".5" stroke-linecap="round"></line><line x1="100" y1="100" x2="53" y2="18.59" stroke="currentColor" stroke-width="2.4" stroke-opacity=".9" stroke-linecap="round"></line><line x1="100" y1="100" x2="79.81" y2="24.66" stroke="currentColor" stroke-width="1.1" stroke-opacity=".5" stroke-linecap="round"></line><circle cx="100" cy="100" r="22" fill="none" stroke="currentColor" stroke-width="2"></circle></svg>