<svg viewBox="0 0 200 230" xmlns="http://www.w3.org/2000/svg" role="img" aria-label="rosary"><circle cx="100" cy="100" r="66" fill="none" stroke="currentColor" stroke-width="1.2" stroke-opacity=".5"></circle><circle cx="100" cy="34" r="4.6" fill="currentColor"></circle><circle cx="120.4" cy="37.23" r="3" fill="currentColor"></circle><circle cx="138.79" cy="46.6" r="3" fill="currentColor"></circle><circle cx="153.4" cy="61.21" r="3" fill="currentColor"></circle><circle cx="162.77" cy="79.6" r="3" fill="currentColor"></circle><circle cx="166" cy="100" r="4.6" fill="currentColor"></circle><circle cx="162.77" cy="120.4" r="3" fill="currentColor"></circle><circle cx="153.4" cy="138.79" r="3" fill="currentColor"></circle><circle cx="138.79" cy="153.4" r="3" fill="currentColor"></circle><circle cx="120.4" cy="162.77" r="3" fill="currentColor"></circle><circle cx="100" cy="166" r="4.6" fill="currentColor"></circle><circle cx="79.6" cy="162.77" r="3" fill="currentColor"></circle><circle cx="61.21" cy="153.4" r="3" fill="currentColor"></circle><circle cx="46.6" cy="138.79" r="3" fill="currentColor"></circle><circle cx="37.23" cy="120.4" r="3" fill="currentColor"></circle><circle cx="34" cy="100" r="4.6" fill="currentColor"></circle><circle cx="37.23" cy="79.6" r="3" fill="currentColor"></circle><circle cx="46.6" cy="61.21" r="3" fill="currentColor"></circle><circle cx="61.21" cy="46.6" r="3" fill="currentColor"></circle><circle cx="79.6" cy="37.23" r="3" fill="currentColor"></circle><line x1="100" y1="166" x2="100" y2="184" stroke="currentColor" stroke-width="1.2" stroke-opacity=".5"></line><circle cx="100" cy="190" r="4" fill="currentColor"></circle><line x1="100" y1="196" x2="100" y2="210" stroke="currentColor" stroke-width="1.2" stroke-opacity=".5"></line><g fill="currentColor"><path d="M97 214 h6 v34 l-3 8 l-3 -8 z"></path><rect x="88" y="224" width="24" height="5.5" rx="1"></rect></g></svg>