<svg viewBox="0 0 200 200" xmlns="http://www.w3.org/2000/svg" fill="none" stroke="currentColor" stroke-width="1.4" role="img" aria-label="rose window"><circle cx="100" cy="100" r="94"></circle><circle cx="100" cy="100" r="86" stroke-opacity=".55"></circle><circle cx="100" cy="100" r="34"></circle><circle cx="100" cy="100" r="14" stroke-opacity=".7"></circle><circle cx="100" cy="40" r="22" stroke-opacity=".7"></circle><circle cx="130" cy="48.04" r="22" stroke-opacity=".7"></circle><circle cx="151.96" cy="70" r="22" stroke-opacity=".7"></circle><circle cx="160" cy="100" r="22" stroke-opacity=".7"></circle><circle cx="151.96" cy="130" r="22" stroke-opacity=".7"></circle><circle cx="130" cy="151.96" r="22" stroke-opacity=".7"></circle><circle cx="100" cy="160" r="22" stroke-opacity=".7"></circle><circle cx="70" cy="151.96" r="22" stroke-opacity=".7"></circle><circle cx="48.04" cy="130" r="22" stroke-opacity=".7"></circle><circle cx="40" cy="100" r="22" stroke-opacity=".7"></circle><circle cx="48.04" cy="70" r="22" stroke-opacity=".7"></circle><circle cx="70" cy="48.04" r="22" stroke-opacity=".7"></circle><line x1="100" y1="66" x2="100" y2="14" stroke-opacity=".4"></line><line x1="117" y1="70.56" x2="143" y2="25.52" stroke-opacity=".4"></line><line x1="129.44" y1="83" x2="174.48" y2="57" stroke-opacity=".4"></line><line x1="134" y1="100" x2="186" y2="100" stroke-opacity=".4"></line><line x1="129.44" y1="117" x2="174.48" y2="143" stroke-opacity=".4"></line><line x1="117" y1="129.44" x2="143" y2="174.48" stroke-opacity=".4"></line><line x1="100" y1="134" x2="100" y2="186" stroke-opacity=".4"></line><line x1="83" y1="129.44" x2="57" y2="174.48" stroke-opacity=".4"></line><line x1="70.56" y1="117" x2="25.52" y2="143" stroke-opacity=".4"></line><line x1="66" y1="100" x2="14" y2="100" stroke-opacity=".4"></line><line x1="70.56" y1="83" x2="25.52" y2="57" stroke-opacity=".4"></line><line x1="83" y1="70.56" x2="57" y2="25.52" stroke-opacity=".4"></line><circle cx="114.14" cy="85.86" r="11" stroke-opacity=".8"></circle><circle cx="114.14" cy="114.14" r="11" stroke-opacity=".8"></circle><circle cx="85.86" cy="114.14" r="11" stroke-opacity=".8"></circle><circle cx="85.86" cy="85.86" r="11" stroke-opacity=".8"></circle><circle cx="100" cy="100" r="4.5" fill="currentColor" stroke="none"></circle></svg>